<?xml version="1.0" encoding="UTF-8" standalone="no"?>
<svg
   xmlns:dc="http://purl.org/dc/elements/1.1/"
   xmlns:cc="http://creativecommons.org/ns#"
   xmlns:rdf="http://www.w3.org/1999/02/22-rdf-syntax-ns#"
   xmlns:svg="http://www.w3.org/2000/svg"
   xmlns="http://www.w3.org/2000/svg"
   xml:space="preserve"
   style="enable-background:new 0 0 289 145;"
   viewBox="0 0 289 145"
   y="0px"
   x="0px"
   id="Layer_1"
   version="1.1"><metadata
   id="metadata3753"><rdf:RDF><cc:Work
       rdf:about=""><dc:format>image/svg+xml</dc:format><dc:type
         rdf:resource="http://purl.org/dc/dcmitype/StillImage" /><dc:title></dc:title></cc:Work></rdf:RDF></metadata><defs
   id="defs3751" />
<style
   id="style3734"
   type="text/css">
	.st0{fill:#FCBA21;}
	.st1{fill:none;stroke:#231F20;stroke-width:6;stroke-miterlimit:10;}
	.st2{fill:#231F20;stroke:#231F20;stroke-width:0.25;stroke-miterlimit:10;}
</style>
<path
   id="path3736"
   d="M30.6,138.7c-12.3,0-22.3-10-22.3-22.3V28.1c0-12.3,10-22.3,22.3-22.3h227.3c12.3,0,22.3,10,22.3,22.3v88.3  c0,12.3-10,22.3-22.3,22.3H30.6z"
   class="st0" />
<path
   id="path3738"
   d="M257.8,130.1H30.6c-7.6,0-13.8-6.2-13.8-13.7V28.1c0-7.6,6.2-13.8,13.8-13.8h227.3c7.6,0,13.8,6.2,13.8,13.8  v88.3C271.6,124,265.4,130.1,257.8,130.1z"
   class="st1" />
<path
   style="fill:#231f20;stroke:#231f20;stroke-width:0.23982728;stroke-miterlimit:10"
   id="path3740"
   d="m 68.347559,75.539908 0.09657,-2.096483 c 0,-0.667062 0.386287,-1.334125 0.869143,-1.715304 l 11.202282,-5.812974 c 2.703999,-1.143536 4.442284,-3.716492 4.442284,-6.670627 l -0.09657,-19.249522 c 0,-3.907081 -3.186856,-7.051805 -7.146283,-7.051805 H 45.073853 c -2.80057,0 -5.118284,2.287072 -5.118284,5.050617 v 71.56629 c 0,1.14354 0.965714,2.09649 2.124571,2.09649 h 7.339426 c 1.158856,0 2.124571,-0.95295 2.124571,-2.09649 l -0.09657,-64.609779 c 0,-1.334126 1.158857,-2.477662 2.510856,-2.477662 H 70.47213 c 1.351999,0 2.510856,1.143536 2.510856,2.477662 v 13.627137 c 0,1.334125 -0.676,2.66825 -1.834856,3.430608 l -2.221143,1.429419 c -0.289714,0.19059 -0.676,0.285884 -1.062285,0.285884 h -6.759998 c -1.834856,0 -3.379999,1.524715 -3.379999,3.335314 V 80.114052 L 74.6247,110.22717 c 0.482857,0.85765 1.448571,1.42942 2.510856,1.42942 l 7.822283,-0.0953 c 1.834857,0 2.993714,-1.90589 2.027999,-3.5259 L 68.637273,76.683444 C 68.44413,76.39756 68.347559,75.921086 68.347559,75.539908 Z"
   class="st2" />
<path
   style="fill:#231f20;stroke:#231f20;stroke-width:0.24202819;stroke-miterlimit:10"
   id="path3742"
   d="M 234.11955,97.283173 V 47.204112 c 0,-1.358734 1.15885,-2.523363 2.51083,-2.523363 h 2.02799 c 1.35199,0 2.51084,-1.164629 2.51084,-2.523364 v -6.793671 c 0,-1.358734 -1.15885,-2.523364 -2.51084,-2.523364 h -4.53882 v 0 h -11.78164 v 0 h -4.53882 c -1.35199,0 -2.51083,1.16463 -2.51083,2.523364 v 6.793671 c 0,1.358735 1.15884,2.523364 2.51083,2.523364 h 2.02799 c 1.35199,0 2.51083,1.164629 2.51083,2.523363 V 97.18612 c 0,1.358738 -1.15884,2.523362 -2.51083,2.523362 H 211.522 c -1.35199,0 -2.51084,1.164628 -2.51084,2.523358 v 6.79367 c 0,1.35875 1.15885,2.52337 2.51084,2.52337 h 10.81591 11.78164 10.81591 c 1.35199,0 2.51084,-1.16462 2.51084,-2.52337 v -6.79367 c 0,-1.35873 -1.15885,-2.523358 -2.51084,-2.523358 h -8.30508 c -1.44855,0.09706 -2.51083,-1.067576 -2.51083,-2.426309 z"
   class="st2" />
<path
   style="fill:#231f20;stroke:#231f20;stroke-width:0.24098299;stroke-miterlimit:10"
   id="path3744"
   d="m 204.32071,40.814571 v -4.041044 c 0,-2.020521 -1.73829,-3.752397 -3.76629,-3.752397 h -33.41371 c -3.95942,0 -7.24284,3.175106 -7.24284,7.119933 v 67.639367 c 0,2.02052 1.73828,3.75239 3.76628,3.75239 h 4.05599 c 2.12458,0 3.76629,-1.63566 3.76629,-3.75239 V 81.802295 c 0,-1.347013 1.15886,-2.501598 2.51085,-2.501598 h 19.604 c 1.93143,0 3.57314,-1.539444 3.57314,-3.463751 v -4.425904 c 0,-1.924307 -1.64171,-3.463752 -3.57314,-3.463752 h -19.604 c -1.44856,0 -2.51085,-1.154584 -2.51085,-2.501598 V 47.068567 c 0,-1.347015 1.15886,-2.501598 2.51085,-2.501598 h 26.46057 c 2.22114,0 3.86286,-1.731877 3.86286,-3.752398 z"
   class="st2" />
<path
   style="fill:#231f20;stroke:#231f20;stroke-width:0.23879555;stroke-miterlimit:10"
   id="path3746"
   d="m 134.98183,88.695223 v 5.763068 c 0,3.590108 -2.89715,6.424399 -6.56686,6.424399 H 114.7984 c -3.66971,0 -6.56685,-2.834291 -6.56685,-6.424399 V 50.148799 c 0,-3.590107 2.89714,-6.424403 6.56685,-6.424403 h 13.61657 c 3.66971,0 6.56686,2.834296 6.56686,6.424403 v 30.515919 c 0,0.56686 0.28971,1.133718 0.77256,1.417148 l 7.14628,4.62935 c 1.15886,0.755812 2.70401,-0.09447 2.70401,-1.417148 V 48.448222 c 0,-8.597363 -7.14629,-15.49415 -15.83772,-15.49415 H 113.4464 c -8.788,0 -15.83771,6.991263 -15.83771,15.49415 v 47.61617 c 0,8.597368 7.14628,15.494158 15.83771,15.494158 h 16.32056 c 8.788,0 15.83772,-6.99127 15.83772,-15.494158 v -2.645343 c 0,-0.56686 -0.28972,-1.039242 -0.77258,-1.322671 l -7.33942,-4.723827 c -1.06229,-0.661335 -2.51085,0.09447 -2.51085,1.322672 z"
   class="st2" />
</svg>